{
    "asset" : {
        "generator" : "Khronos glTF Blender I/O v1.5.17",
        "version" : "2.0"
    },
    "scene" : 0,
    "scenes" : [
        {
            "name" : "Scene",
            "nodes" : [
                0,
                1,
                2,
                3,
                4,
                5,
                6,
                7,
                8,
                9,
                10
            ]
        }
    ],
    "nodes" : [
        {
            "name" : "Light",
            "rotation" : [
                0.16907575726509094,
                0.7558803558349609,
                -0.27217137813568115,
                0.570947527885437
            ],
            "translation" : [
                4.076245307922363,
                5.903861999511719,
                -1.0054539442062378
            ]
        },
        {
            "name" : "Camera",
            "rotation" : [
                0.483536034822464,
                0.33687159419059753,
                -0.20870360732078552,
                0.7804827094078064
            ],
            "translation" : [
                7.358891487121582,
                4.958309173583984,
                6.925790786743164
            ]
        },
        {
            "mesh" : 0,
            "name" : "a1"
        },
        {
            "mesh" : 1,
            "name" : "a2"
        },
        {
            "mesh" : 2,
            "name" : "a3"
        },
        {
            "mesh" : 3,
            "name" : "b1"
        },
        {
            "mesh" : 4,
            "name" : "b2"
        },
        {
            "mesh" : 5,
            "name" : "b3"
        },
        {
            "mesh" : 6,
            "name" : "c1"
        },
        {
            "mesh" : 7,
            "name" : "c2"
        },
        {
            "mesh" : 8,
            "name" : "c3"
        }
    ],
    "meshes" : [
        {
            "name" : "Plane.001",
            "primitives" : [
                {
                    "attributes" : {
                        "POSITION" : 0,
                        "NORMAL" : 1,
                        "TEXCOORD_0" : 2
                    },
                    "indices" : 3
                }
            ]
        },
        {
            "name" : "Plane.002",
            "primitives" : [
                {
                    "attributes" : {
                        "POSITION" : 4,
                        "NORMAL" : 5,
                        "TEXCOORD_0" : 6
                    },
                    "indices" : 7
                }
            ]
        },
        {
            "name" : "Plane.003",
            "primitives" : [
                {
                    "attributes" : {
                        "POSITION" : 8,
                        "NORMAL" : 9,
                        "TEXCOORD_0" : 10
                    },
                    "indices" : 11
                }
            ]
        },
        {
            "name" : "Plane.004",
            "primitives" : [
                {
                    "attributes" : {
                        "POSITION" : 12,
                        "NORMAL" : 13,
                        "TEXCOORD_0" : 14
                    },
                    "indices" : 15
                }
            ]
        },
        {
            "name" : "Plane.005",
            "primitives" : [
                {
                    "attributes" : {
                        "POSITION" : 16,
                        "NORMAL" : 17,
                        "TEXCOORD_0" : 18
                    },
                    "indices" : 3
                }
            ]
        },
        {
            "name" : "Plane.006",
            "primitives" : [
                {
                    "attributes" : {
                        "POSITION" : 19,
                        "NORMAL" : 20,
                        "TEXCOORD_0" : 21
                    },
                    "indices" : 22
                }
            ]
        },
        {
            "name" : "Plane.007",
            "primitives" : [
                {
                    "attributes" : {
                        "POSITION" : 23,
                        "NORMAL" : 24,
                        "TEXCOORD_0" : 25
                    },
                    "indices" : 26
                }
            ]
        },
        {
            "name" : "Plane.008",
            "primitives" : [
                {
                    "attributes" : {
                        "POSITION" : 27,
                        "NORMAL" : 28,
                        "TEXCOORD_0" : 29
                    },
                    "indices" : 30
                }
            ]
        },
        {
            "name" : "Plane.009",
            "primitives" : [
                {
                    "attributes" : {
                        "POSITION" : 31,
                        "NORMAL" : 32,
                        "TEXCOORD_0" : 33
                    },
                    "indices" : 34
                }
            ]
        }
    ],
    "accessors" : [
        {
            "bufferView" : 0,
            "componentType" : 5126,
            "count" : 4,
            "max" : [
                -0.3333333134651184,
                0,
                1
            ],
            "min" : [
                -1,
                0,
                0.3333333134651184
            ],
            "type" : "VEC3"
        },
        {
            "bufferView" : 1,
            "componentType" : 5126,
            "count" : 4,
            "type" : "VEC3"
        },
        {
            "bufferView" : 2,
            "componentType" : 5126,
            "count" : 4,
            "type" : "VEC2"
        },
        {
            "bufferView" : 3,
            "componentType" : 5123,
            "count" : 6,
            "type" : "SCALAR"
        },
        {
            "bufferView" : 4,
            "componentType" : 5126,
            "count" : 4,
            "max" : [
                -0.3333333134651184,
                0,
                0.3333333134651184
            ],
            "min" : [
                -1,
                0,
                -0.3333333134651184
            ],
            "type" : "VEC3"
        },
        {
            "bufferView" : 5,
            "componentType" : 5126,
            "count" : 4,
            "type" : "VEC3"
        },
        {
            "bufferView" : 6,
            "componentType" : 5126,
            "count" : 4,
            "type" : "VEC2"
        },
        {
            "bufferView" : 7,
            "componentType" : 5123,
            "count" : 6,
            "type" : "SCALAR"
        },
        {
            "bufferView" : 8,
            "componentType" : 5126,
            "count" : 4,
            "max" : [
                -0.3333333134651184,
                0,
                -0.3333333134651184
            ],
            "min" : [
                -1,
                0,
                -1
            ],
            "type" : "VEC3"
        },
        {
            "bufferView" : 9,
            "componentType" : 5126,
            "count" : 4,
            "type" : "VEC3"
        },
        {
            "bufferView" : 10,
            "componentType" : 5126,
            "count" : 4,
            "type" : "VEC2"
        },
        {
            "bufferView" : 11,
            "componentType" : 5123,
            "count" : 6,
            "type" : "SCALAR"
        },
        {
            "bufferView" : 12,
            "componentType" : 5126,
            "count" : 4,
            "max" : [
                0.3333333134651184,
                0,
                1
            ],
            "min" : [
                -0.3333333134651184,
                0,
                0.3333333134651184
            ],
            "type" : "VEC3"
        },
        {
            "bufferView" : 13,
            "componentType" : 5126,
            "count" : 4,
            "type" : "VEC3"
        },
        {
            "bufferView" : 14,
            "componentType" : 5126,
            "count" : 4,
            "type" : "VEC2"
        },
        {
            "bufferView" : 15,
            "componentType" : 5123,
            "count" : 6,
            "type" : "SCALAR"
        },
        {
            "bufferView" : 16,
            "componentType" : 5126,
            "count" : 4,
            "max" : [
                0.3333333134651184,
                0,
                0.3333333134651184
            ],
            "min" : [
                -0.3333333134651184,
                0,
                -0.3333333134651184
            ],
            "type" : "VEC3"
        },
        {
            "bufferView" : 17,
            "componentType" : 5126,
            "count" : 4,
            "type" : "VEC3"
        },
        {
            "bufferView" : 18,
            "componentType" : 5126,
            "count" : 4,
            "type" : "VEC2"
        },
        {
            "bufferView" : 19,
            "componentType" : 5126,
            "count" : 4,
            "max" : [
                0.3333333134651184,
                0,
                -0.3333333134651184
            ],
            "min" : [
                -0.3333333134651184,
                0,
                -1
            ],
            "type" : "VEC3"
        },
        {
            "bufferView" : 20,
            "componentType" : 5126,
            "count" : 4,
            "type" : "VEC3"
        },
        {
            "bufferView" : 21,
            "componentType" : 5126,
            "count" : 4,
            "type" : "VEC2"
        },
        {
            "bufferView" : 22,
            "componentType" : 5123,
            "count" : 6,
            "type" : "SCALAR"
        },
        {
            "bufferView" : 23,
            "componentType" : 5126,
            "count" : 4,
            "max" : [
                1,
                0,
                1
            ],
            "min" : [
                0.3333333134651184,
                0,
                0.3333333134651184
            ],
            "type" : "VEC3"
        },
        {
            "bufferView" : 24,
            "componentType" : 5126,
            "count" : 4,
            "type" : "VEC3"
        },
        {
            "bufferView" : 25,
            "componentType" : 5126,
            "count" : 4,
            "type" : "VEC2"
        },
        {
            "bufferView" : 26,
            "componentType" : 5123,
            "count" : 6,
            "type" : "SCALAR"
        },
        {
            "bufferView" : 27,
            "componentType" : 5126,
            "count" : 4,
            "max" : [
                1,
                0,
                0.3333333134651184
            ],
            "min" : [
                0.3333333134651184,
                0,
                -0.3333333134651184
            ],
            "type" : "VEC3"
        },
        {
            "bufferView" : 28,
            "componentType" : 5126,
            "count" : 4,
            "type" : "VEC3"
        },
        {
            "bufferView" : 29,
            "componentType" : 5126,
            "count" : 4,
            "type" : "VEC2"
        },
        {
            "bufferView" : 30,
            "componentType" : 5123,
            "count" : 6,
            "type" : "SCALAR"
        },
        {
            "bufferView" : 31,
            "componentType" : 5126,
            "count" : 4,
            "max" : [
                1,
                0,
                -0.3333333134651184
            ],
            "min" : [
                0.3333333134651184,
                0,
                -1
            ],
            "type" : "VEC3"
        },
        {
            "bufferView" : 32,
            "componentType" : 5126,
            "count" : 4,
            "type" : "VEC3"
        },
        {
            "bufferView" : 33,
            "componentType" : 5126,
            "count" : 4,
            "type" : "VEC2"
        },
        {
            "bufferView" : 34,
            "componentType" : 5123,
            "count" : 6,
            "type" : "SCALAR"
        }
    ],
    "bufferViews" : [
        {
            "buffer" : 0,
            "byteLength" : 48,
            "byteOffset" : 0
        },
        {
            "buffer" : 0,
            "byteLength" : 48,
            "byteOffset" : 48
        },
        {
            "buffer" : 0,
            "byteLength" : 32,
            "byteOffset" : 96
        },
        {
            "buffer" : 0,
            "byteLength" : 12,
            "byteOffset" : 128
        },
        {
            "buffer" : 0,
            "byteLength" : 48,
            "byteOffset" : 140
        },
        {
            "buffer" : 0,
            "byteLength" : 48,
            "byteOffset" : 188
        },
        {
            "buffer" : 0,
            "byteLength" : 32,
            "byteOffset" : 236
        },
        {
            "buffer" : 0,
            "byteLength" : 12,
            "byteOffset" : 268
        },
        {
            "buffer" : 0,
            "byteLength" : 48,
            "byteOffset" : 280
        },
        {
            "buffer" : 0,
            "byteLength" : 48,
            "byteOffset" : 328
        },
        {
            "buffer" : 0,
            "byteLength" : 32,
            "byteOffset" : 376
        },
        {
            "buffer" : 0,
            "byteLength" : 12,
            "byteOffset" : 408
        },
        {
            "buffer" : 0,
            "byteLength" : 48,
            "byteOffset" : 420
        },
        {
            "buffer" : 0,
            "byteLength" : 48,
            "byteOffset" : 468
        },
        {
            "buffer" : 0,
            "byteLength" : 32,
            "byteOffset" : 516
        },
        {
            "buffer" : 0,
            "byteLength" : 12,
            "byteOffset" : 548
        },
        {
            "buffer" : 0,
            "byteLength" : 48,
            "byteOffset" : 560
        },
        {
            "buffer" : 0,
            "byteLength" : 48,
            "byteOffset" : 608
        },
        {
            "buffer" : 0,
            "byteLength" : 32,
            "byteOffset" : 656
        },
        {
            "buffer" : 0,
            "byteLength" : 48,
            "byteOffset" : 688
        },
        {
            "buffer" : 0,
            "byteLength" : 48,
            "byteOffset" : 736
        },
        {
            "buffer" : 0,
            "byteLength" : 32,
            "byteOffset" : 784
        },
        {
            "buffer" : 0,
            "byteLength" : 12,
            "byteOffset" : 816
        },
        {
            "buffer" : 0,
            "byteLength" : 48,
            "byteOffset" : 828
        },
        {
            "buffer" : 0,
            "byteLength" : 48,
            "byteOffset" : 876
        },
        {
            "buffer" : 0,
            "byteLength" : 32,
            "byteOffset" : 924
        },
        {
            "buffer" : 0,
            "byteLength" : 12,
            "byteOffset" : 956
        },
        {
            "buffer" : 0,
            "byteLength" : 48,
            "byteOffset" : 968
        },
        {
            "buffer" : 0,
            "byteLength" : 48,
            "byteOffset" : 1016
        },
        {
            "buffer" : 0,
            "byteLength" : 32,
            "byteOffset" : 1064
        },
        {
            "buffer" : 0,
            "byteLength" : 12,
            "byteOffset" : 1096
        },
        {
            "buffer" : 0,
            "byteLength" : 48,
            "byteOffset" : 1108
        },
        {
            "buffer" : 0,
            "byteLength" : 48,
            "byteOffset" : 1156
        },
        {
            "buffer" : 0,
            "byteLength" : 32,
            "byteOffset" : 1204
        },
        {
            "buffer" : 0,
            "byteLength" : 12,
            "byteOffset" : 1236
        }
    ],
    "buffers" : [
        {
            "byteLength" : 1248,
            "uri" : "data:application/octet-stream;base64,"
        }
    ]
}
